# xmcd CD database file
# Copyright (C) 1993-1998 Ti Kan
#
# Track frame offsets:
#  183
#  21590
#  38305
#  63770
#  74295
#  95428
#  111155
#  122298
#  137923
#  156825
#  177488
#  191758
#  210155
#  225615
#  235048
#  252325
#  264990
#  294108
#
# Disc length: 4173 seconds
#
# Revision: 1
# Processed by: cddbd v1.4b41PL1 Copyright (c) Steve Scherf et al.
# Submitted via: CDWizzard Release:4.35
#
DISCID=ee104b12
DTITLE=Edwin Hawkins Singers - Oh happy day
DYEAR=1900
DGENRE=
TTITLE0=Oh happy day
TTITLE1=Lay Down
TTITLE2=To my fathers house
TTITLE3=Let us go into the house of the lord
TTITLE4=Surrender
TTITLE5=Grove of eucalyptus
TTITLE6=I'd like to teach the world to sing
TTITLE7=Give me a star
TTITLE8=A few days ago
TTITLE9=You can't please everybody
TTITLE10=Early in the morning
TTITLE11=I shall be free
TTITLE12=Mine all mine
TTITLE13=The world is going to be a better place
TTITLE14=His way
TTITLE15=A long way to go
TTITLE16=All you need
TTITLE17=Jesus, lover of my soul
EXTD=
EXTT0=
EXTT1=
EXTT2=
EXTT3=
EXTT4=
EXTT5=
EXTT6=
EXTT7=
EXTT8=
EXTT9=
EXTT10=
EXTT11=
EXTT12=
EXTT13=
EXTT14=
EXTT15=
EXTT16=
EXTT17=
PLAYORDER=
